<?xml version="1.0" standalone="no"?>
<!DOCTYPE svg PUBLIC "-//W3C//DTD SVG 20010904//EN" "http://www.w3.org/TR/2001/REC-SVG-20010904/DTD/svg10.dtd">
<svg version="1.0" xmlns="http://www.w3.org/2000/svg" width="400.000000pt" height="396.000000pt" viewBox="0 0 400.000000 396.000000" preserveAspectRatio="xMidYMid meet">
  <circle cx="200" cy="198" r="198" fill="orange" /> {/* Circle background */}
  
  <g transform="translate(0.000000,396.000000) scale(0.100000,-0.100000)" fill="#000000" stroke="none">
    <path d="M753 3224 c-3 -8 -3 -53 0 -100 4 -75 9 -89 40 -137 37 -56 108 -121 214 -197 73 -53 148 -100 158 -100 3 0 53 -32 110 -71 96 -65 105 -74 120 -119 16 -48 54 -90 81 -90 8 0 14 -4 14 -10 0 -12 -35 -14 -287 -10 l-203 2 0 -40 0 -40 68 -7 c76 -8 112 -24 134 -58 35 -53 39 -153 36 -867 -3 -623 -5 -699 -20 -732 -19 -42 -41 -56 -123 -78 -54 -14 -60 -18 -63 -44 -2 -16 1 -33 6 -38 12 -12 682 -12 694 0 5 5 8 22 6 38 -3 27 -6 29 -83 42 -86 14 -122 33 -143 76 -20 41 -34 275 -30 513 2 175 6 215 19 228 11 11 39 16 98 18 l84 2 19 -65 c11 -36 24 -94 30 -130 5 -36 16 -75 24 -87 8 -12 14 -36 14 -53 0 -16 9 -53 20 -82 18 -47 20 -77 20 -274 0 -222 0 -222 23 -227 30 -7 304 -8 344 -1 29 5 32 10 36 52 3 26 6 138 6 249 0 194 1 206 26 270 60 153 65 170 89 288 l12 60 85 -1 c131 -1 136 -3 145 -71 4 -32 5 -191 2 -353 -5 -274 -7 -299 -26 -337 -24 -46 -30 -49 -127 -72 -68 -16 -70 -18 -73 -49 -3 -25 1 -34 17 -40 11 -4 170 -5 353 -2 l333 5 0 35 0 34 -81 16 c-91 17 -110 29 -133 80 -14 31 -16 119 -18 755 -1 753 2 810 42 855 20 22 62 36 138 45 l47 6 0 40 c0 24 -5 39 -12 40 -13 0 -106 -1 -390 -6 -76 -1 -138 2 -138 6 0 8 64 29 91 29 26 0 39 22 39 65 0 27 6 47 18 57 18 17 94 56 263 137 111 52 281 160 336 213 44 43 60 82 61 154 2 70 -10 87 -55 82 -36 -4 -56 -45 -59 -121 -2 -88 7 -83 -262 -175 -78 -27 -166 -65 -195 -84 -92 -61 -243 -110 -323 -106 -50 3 -60 6 -71 27 -6 14 -23 31 -37 38 -17 9 -26 22 -26 39 0 38 -46 102 -84 118 -19 8 -41 28 -50 44 -17 37 -72 84 -114 101 -28 12 -42 11 -96 -3 -67 -19 -87 -34 -129 -103 -15 -23 -35 -44 -45 -47 -29 -9 -42 -50 -42 -126 0 -60 -3 -71 -22 -84 -66 -47 -251 7 -406 117 -46 32 -123 79 -173 103 -49 24 -131 72 -181 105 l-90 61 6 68 c7 66 6 69 -25 104 -33 38 -75 48 -86 20z m1445 -418 c3 -12 -1 -17 -10 -14 -7 3 -15 13 -16 22 -3 12 1 17 10 14 7 -3 15 -13 16 -22z m-8 -130 c0 -16 8 -35 18 -42 16 -13 16 -15 -2 -29 -24 -18 -47 -19 -68 -2 -15 11 -15 16 -1 57 27 79 52 87 53 16z m690 -323 c19 -10 41 -30 49 -46 29 -63 43 -658 16 -685 -17 -17 -190 -27 -200 -12 -4 7 -9 40 -12 74 -3 34 -13 76 -23 92 -9 17 -23 51 -30 78 -7 26 -17 50 -21 53 -11 7 -12 81 -1 88 18 11 45 183 46 292 1 84 14 97 85 89 31 -4 72 -14 91 -23z m-847 6 c9 -7 21 -35 27 -63 6 -27 18 -77 26 -110 9 -33 20 -82 24 -109 5 -28 17 -72 27 -98 14 -41 15 -52 5 -69 -27 -43 -64 -167 -71 -234 l-6 -70 -84 2 c-62 1 -88 6 -100 18 -35 35 -23 612 14 684 24 48 102 75 138 49z"/>
  </g>
</svg>
